<?xml version="1.0" standalone="no"?>
<!DOCTYPE svg PUBLIC "-//W3C//DTD SVG 20010904//EN"
 "http://www.w3.org/TR/2001/REC-SVG-20010904/DTD/svg10.dtd">
<svg version="1.0" xmlns="http://www.w3.org/2000/svg"
 width="323.000000pt" height="323.000000pt" viewBox="0 0 323.000000 323.000000"
 preserveAspectRatio="xMidYMid meet">
<metadata>
Created by potrace 1.14, written by Peter Selinger 2001-2017
</metadata>
<g transform="translate(0.000000,323.000000) scale(0.100000,-0.100000)"
fill="#000000" stroke="none">
<path d="M1221 3104 c-186 -49 -304 -181 -326 -365 l-7 -56 -61 -17 c-137 -38
-242 -118 -293 -221 -34 -71 -44 -187 -22 -270 l14 -50 -41 -20 c-59 -28 -151
-125 -181 -189 -81 -177 -33 -375 117 -479 l22 -16 -38 -42 c-87 -97 -119
-247 -76 -361 46 -121 145 -202 270 -221 23 -4 24 -7 26 -88 1 -68 6 -94 28
-139 54 -114 166 -192 277 -194 l60 -1 21 -53 c27 -65 100 -143 160 -170 103
-47 257 -50 375 -8 l70 26 51 -20 c68 -26 95 -31 181 -35 177 -8 319 71 369
204 9 25 17 47 19 49 1 2 29 5 62 6 117 7 225 82 279 195 22 46 27 71 28 140
2 75 4 85 21 87 52 8 109 30 148 58 175 124 196 364 49 527 -34 38 -36 42 -19
51 39 22 100 96 128 155 47 100 42 237 -13 345 -27 54 -123 149 -172 173 l-39
18 9 46 c4 25 8 84 8 131 0 71 -5 95 -27 143 -47 100 -153 181 -293 223 -33
10 -62 19 -63 20 -2 1 -6 26 -8 56 -9 114 -71 223 -165 287 -148 102 -323 114
-500 35 l-57 -26 -40 21 c-99 51 -254 70 -351 45z m259 -144 c30 -12 59 -25
63 -30 11 -10 11 -2640 0 -2650 -26 -24 -120 -42 -197 -38 -138 7 -216 71
-236 194 -12 76 -24 87 -74 79 -23 -4 -66 -8 -96 -8 -46 -2 -62 3 -97 28 -55
39 -93 108 -93 169 0 53 21 102 47 110 126 35 230 19 290 -46 25 -26 62 -105
63 -130 0 -24 36 -58 60 -58 12 0 32 11 45 24 27 27 26 56 -6 141 -35 95 -116
168 -218 199 -62 18 -190 15 -276 -8 -114 -31 -196 -14 -262 54 -90 93 -72
234 44 340 59 54 102 68 190 65 95 -4 162 -44 241 -144 13 -16 29 -24 50 -24
72 0 84 62 25 134 -90 110 -202 161 -342 158 -47 -1 -97 -5 -111 -9 -55 -15
-157 66 -184 148 -58 168 61 342 249 367 87 11 119 16 137 21 9 3 25 6 35 8
41 9 152 50 207 77 152 77 249 192 277 328 15 72 7 109 -26 117 -48 12 -73 -3
-86 -49 -34 -126 -77 -190 -169 -250 -84 -54 -222 -103 -342 -121 -36 -6 -38
-5 -48 34 -40 148 11 265 140 322 25 11 52 23 60 28 9 4 48 13 88 20 95 17
104 29 95 127 -5 68 -4 77 25 135 35 70 88 116 169 149 63 26 184 21 263 -11z
m557 -1 c74 -35 120 -80 151 -147 21 -46 24 -64 19 -128 -6 -96 3 -107 104
-127 196 -39 305 -146 292 -287 -6 -65 -22 -120 -36 -121 -61 -4 -228 1 -240
7 -18 11 -102 88 -111 102 -3 5 0 27 8 49 52 147 -66 300 -222 289 -83 -6
-147 -51 -182 -127 -76 -168 81 -350 258 -300 27 8 37 7 50 -7 10 -9 49 -45
88 -79 l71 -63 169 0 c157 0 173 -2 219 -24 64 -30 107 -76 141 -150 22 -49
26 -68 22 -120 -9 -105 -56 -166 -167 -220 -62 -29 -66 -33 -69 -68 -3 -33 1
-39 42 -68 158 -108 197 -272 91 -382 -53 -54 -109 -72 -198 -64 -39 4 -113 7
-164 8 -89 1 -92 2 -103 27 -14 34 -64 87 -99 106 -128 66 -291 -19 -316 -162
-4 -28 -1 -60 9 -95 40 -134 179 -194 303 -133 50 25 66 41 102 101 18 30 19
30 97 28 44 -1 82 -2 85 -3 13 -2 29 -54 29 -94 -1 -81 -65 -174 -137 -198
-19 -6 -52 -8 -74 -5 -21 3 -56 9 -77 12 -46 7 -61 -7 -68 -63 -3 -21 -8 -45
-11 -53 -3 -8 -7 -21 -9 -28 -5 -27 -57 -83 -92 -101 -77 -38 -189 -43 -275
-11 -45 17 -57 26 -58 43 -4 133 0 910 5 915 4 3 39 7 77 7 l70 1 92 92 c84
83 97 93 132 94 23 1 41 -4 43 -11 11 -34 72 -99 112 -119 66 -34 162 -28 222
13 75 54 112 163 83 248 -56 162 -259 202 -373 73 -16 -19 -33 -44 -37 -55 -7
-22 -13 -24 -88 -21 -48 2 -48 1 -146 -94 -95 -94 -98 -96 -144 -96 -42 0 -47
2 -48 23 0 12 -1 366 -1 785 0 536 3 767 11 775 6 6 41 21 78 33 97 33 192 31
270 -7z m44 -518 c78 -79 -22 -198 -116 -137 -25 17 -45 68 -37 98 2 10 15 29
28 43 33 36 86 34 125 -4z m276 -891 c55 -33 55 -122 0 -152 -43 -23 -75 -20
-108 10 -39 34 -44 88 -13 123 37 42 75 48 121 19z m-222 -615 c14 -14 26 -30
26 -35 1 -6 2 -16 3 -22 4 -26 -17 -70 -40 -85 -93 -60 -193 60 -115 138 39
38 89 40 126 4z"/>
</g>
</svg>
